<?xml version="1.0" encoding="UTF-8"?>
<svg width="77px" height="46px" viewBox="0 0 77 46" version="1.1" xmlns="http://www.w3.org/2000/svg" xmlns:xlink="http://www.w3.org/1999/xlink">
    <!-- Generator: Sketch 57.1 (83088) - https://sketch.com -->
    <title>Group 2</title>
    <desc>Created with Sketch.</desc>
    <defs>
        <polygon id="path-1" points="0.418152411 0.152 7.23977605 0.152 11.1753281 14.232 11.2409207 14.232 11.2409207 0.152 16.9474712 0.152 16.9474712 23 10.2570327 23 6.19029549 8.888 6.12470295 8.888 6.12470295 23 0.418152411 23"></polygon>
        <linearGradient x1="50%" y1="10.7578443%" x2="50%" y2="64.9796727%" id="linearGradient-3">
            <stop stop-color="#FFFFFF" stop-opacity="0" offset="0%"></stop>
            <stop stop-color="#FFFFFF" offset="100%"></stop>
        </linearGradient>
        <polygon id="path-4" points="18.8086594 0.152 32.6814806 0.152 32.6814806 5.016 24.9087652 5.016 24.9087652 8.92 32.1895365 8.92 32.1895365 13.592 24.9087652 13.592 24.9087652 18.136 32.976647 18.136 32.976647 23 18.8086594 23"></polygon>
        <polygon id="path-6" points="10.766619 0.152 16.2763919 0.152 18.6705194 15.96 18.736112 15.96 20.3759253 0.152 26.2792535 0.152 22.2781089 23 15.5876703 23 13.5543017 7.64 13.4887092 7.64 11.4553406 23 4.76490202 23 0.763757387 0.152 6.66708554 0.152 8.50367652 15.96 8.56926905 15.96"></polygon>
        <path d="M69.8396516,7.744 L69.8396516,7.2 C69.8396516,6.51732992 69.6975359,5.9360024 69.4133002,5.456 C69.1290644,4.9759976 68.6917852,4.736 68.1014495,4.736 C67.4455208,4.736 66.9645137,4.94399792 66.6584137,5.36 C66.3523137,5.77600208 66.1992659,6.23999744 66.1992659,6.752 C66.1992659,7.4986704 66.4452355,8.09066448 66.937182,8.528 C67.4291284,8.96533552 68.0467853,9.3439984 68.7901711,9.664 C69.5335569,9.9840016 70.3315914,10.3093317 71.1842986,10.64 C72.0370058,10.9706683 72.8350403,11.402664 73.5784261,11.936 C74.3218119,12.469336 74.9394688,13.1679957 75.4314152,14.032 C75.9233617,14.8960043 76.1693313,16.0213264 76.1693313,17.408 C76.1693313,19.8400122 75.4587526,21.6053278 74.0375739,22.704 C72.6163952,23.8026722 70.561183,24.352 67.8718756,24.352 C66.6037469,24.352 65.483219,24.2506677 64.5102582,24.048 C63.5372974,23.8453323 62.7173989,23.4933358 62.0505381,22.992 C61.3836773,22.4906642 60.8753403,21.8346707 60.5255117,21.024 C60.1756831,20.2133293 60.0007714,19.2106726 60.0007714,18.016 L60.0007714,17.216 L65.9040995,17.216 L65.9040995,17.76 C65.9040995,18.7413382 66.0899432,19.4293314 66.4616361,19.824 C66.833329,20.2186686 67.3143361,20.416 67.9046719,20.416 C68.5387362,20.416 69.0252093,20.2026688 69.3641058,19.776 C69.7030022,19.3493312 69.8724479,18.8266698 69.8724479,18.208 C69.8724479,17.4613296 69.6374103,16.8693355 69.1673281,16.432 C68.697246,15.9946645 68.1069191,15.6213349 67.3963297,15.312 C66.6857404,15.0026651 65.9150358,14.6880016 65.0841928,14.368 C64.2533499,14.0479984 63.4826453,13.6320026 62.772056,13.12 C62.0614666,12.6079974 61.4711397,11.9360042 61.0010575,11.104 C60.5309754,10.2719958 60.2959378,9.18400672 60.2959378,7.84 C60.2959378,5.51465504 60.9299926,3.74400608 62.1981213,2.528 C63.46625,1.31199392 65.3902784,0.704 67.9702644,0.704 C70.6377075,0.704 72.5672019,1.2639944 73.7588056,2.384 C74.9504093,3.5040056 75.5462022,5.2906544 75.5462022,7.744 L69.8396516,7.744 Z" id="path-8"></path>
    </defs>
    <g id="Symbols" stroke="none" stroke-width="1" fill="none" fill-rule="evenodd">
        <g id="Flash-News" transform="translate(-31.000000, -16.000000)">
            <g id="Group-2" transform="translate(29.721617, 14.000000)">
                <g id="Group-8" transform="translate(1.024883, 23.000000)">
                    <g id="Group-12" transform="translate(0.000000, 1.000000)">
                        <mask id="mask-2" fill="white">
                            <use xlink:href="#path-1"></use>
                        </mask>
                        <use id="Path" fill="#F69220" xlink:href="#path-1"></use>
                        <path d="M1.02488336,1 L1.02488336,13 C21.1172987,7.53643282 46.3977549,5.53643282 76.8662519,7 C76.8662519,7 76.3024326,5 75.1747941,1 L1.02488336,1 Z" id="Path-4" fill="url(#linearGradient-3)" fill-rule="nonzero" opacity="0.483258929" mask="url(#mask-2)"></path>
                    </g>
                    <g id="Group-11" transform="translate(1.024883, 1.000000)">
                        <mask id="mask-5" fill="white">
                            <use xlink:href="#path-4"></use>
                        </mask>
                        <use id="Path" fill="#FBED1F" xlink:href="#path-4"></use>
                        <path d="M0,1 L0,13 C20.0924154,7.53643282 45.3728716,5.53643282 75.8413686,7 C75.8413686,7 75.2775493,5 74.1499107,1 L0,1 Z" id="Path-4" fill="url(#linearGradient-3)" fill-rule="nonzero" opacity="0.483258929" mask="url(#mask-5)"></path>
                    </g>
                    <g id="Group-10" transform="translate(34.024883, 1.000000)">
                        <mask id="mask-7" fill="white">
                            <use xlink:href="#path-6"></use>
                        </mask>
                        <use id="Path" fill="#8BC544" xlink:href="#path-6"></use>
                        <path d="M-33,1 L-33,13 C-12.9075846,7.53643282 12.3728716,5.53643282 42.8413686,7 C42.8413686,7 42.2775493,5 41.1499107,1 L-33,1 Z" id="Path-4" fill="url(#linearGradient-3)" fill-rule="nonzero" opacity="0.483258929" mask="url(#mask-7)"></path>
                    </g>
                    <g id="Group-9" transform="translate(1.024883, 0.000000)">
                        <mask id="mask-9" fill="white">
                            <use xlink:href="#path-8"></use>
                        </mask>
                        <use id="Path" fill="#29A5DE" xlink:href="#path-8"></use>
                        <path d="M0,2 L0,14 C20.0924154,8.53643282 45.3728716,6.53643282 75.8413686,8 C75.8413686,8 75.2775493,6 74.1499107,2 L0,2 Z" id="Path-4" fill="url(#linearGradient-3)" fill-rule="nonzero" opacity="0.483258929" mask="url(#mask-9)"></path>
                    </g>
                </g>
                <text id="FLASH" opacity="0.699999988" font-family="Montserrat-Regular, Montserrat" font-size="16" font-weight="normal" letter-spacing="6.5" fill="#FFFFFF">
                    <tspan x="0" y="15">FLAS</tspan>
                    <tspan x="66.896" y="15">H</tspan>
                </text>
            </g>
        </g>
    </g>
</svg>