<?xml version="1.0" encoding="UTF-8"?>
<svg width="392px" height="307px" viewBox="0 0 392 307" version="1.1" xmlns="http://www.w3.org/2000/svg" xmlns:xlink="http://www.w3.org/1999/xlink">
    <!-- Generator: sketchtool 58 (101010) - https://sketch.com -->
    <title>A3578BA3-E579-4C7F-AAC6-4C26097C9700</title>
    <desc>Created with sketchtool.</desc>
    <defs>
        <filter x="-21.7%" y="-29.1%" width="143.5%" height="158.2%" filterUnits="objectBoundingBox" id="filter-1">
            <feOffset dx="0" dy="9" in="SourceAlpha" result="shadowOffsetOuter1"></feOffset>
            <feGaussianBlur stdDeviation="14.5" in="shadowOffsetOuter1" result="shadowBlurOuter1"></feGaussianBlur>
            <feColorMatrix values="0 0 0 0 0   0 0 0 0 0   0 0 0 0 0  0 0 0 0.5 0" type="matrix" in="shadowBlurOuter1" result="shadowMatrixOuter1"></feColorMatrix>
            <feMerge>
                <feMergeNode in="shadowMatrixOuter1"></feMergeNode>
                <feMergeNode in="SourceGraphic"></feMergeNode>
            </feMerge>
        </filter>
    </defs>
    <g id="TCO19-Scorecard" stroke="none" stroke-width="1" fill="none" fill-rule="evenodd">
        <g id="01-Round-Info" transform="translate(-764.000000, -281.000000)" fill-rule="nonzero">
            <g id="TCO19-logo-expanded" filter="url(#filter-1)" transform="translate(792.000000, 300.000000)">
                <g id="XMLID_12_" transform="translate(30.000000, 0.000000)">
                    <path d="M40.0676157,55.9354839 C73.6975089,57.3870968 82.3451957,73.2580645 115.398577,91.5483871 C148.451957,109.83871 173.626335,70.8387097 173.626335,70.8387097 C148.451957,83.516129 122.893238,61.3548387 101.466192,46.6451613 C117.704626,35.3225806 134.423488,38.9032258 134.423488,38.9032258 C79.1743772,6.96774194 40.0676157,55.9354839 40.0676157,55.9354839" id="XMLID_21_" fill="#5B8C19"></path>
                    <path d="M109.05694,5.90322581 C108.480427,6.19354839 108,6.38709677 107.423488,6.67741935 C107.327402,6.67741935 107.327402,6.77419355 107.231317,6.77419355 C103.772242,8.41935484 100.313167,10.4516129 96.7580071,12.8709677 C146.145907,13.7419355 168.437722,42.9677419 191.978648,62.9032258 C239.925267,103.741935 269.615658,73.3548387 269.615658,73.3548387 C237.715302,68.6129032 221.765125,42.8709677 173.818505,12.3870968 C168.245552,8.90322581 162.960854,6.29032258 157.868327,4.35483871 C157.772242,4.35483871 157.772242,4.35483871 157.676157,4.25806452 C157.099644,4.06451613 156.523132,3.87096774 155.946619,3.67741935 C149.797153,1.5483871 142.302491,-0.0967741935 133.846975,0.0967741935 C133.270463,0.0967741935 132.790036,0.0967741935 132.309609,0.193548387 C131.829181,0.193548387 131.252669,0.193548387 130.772242,0.290322581 C122.316726,0.774193548 115.014235,3.09677419 109.05694,5.90322581" id="XMLID_20_" fill="#EA6840"></path>
                    <path d="M68.0284698,115.16129 C103.099644,146.032258 130.003559,115.064516 130.003559,115.064516 L130.003559,115.064516 C120.875445,114.290323 111.939502,111.096774 104.156584,105.580645 C95.316726,99.1935484 86.3807829,92.8064516 77.7330961,87.3870968 C35.8398577,60.6774194 0.672597865,73.1612903 0.672597865,73.1612903 C26.2313167,78.1935484 39.4911032,90.0967742 68.0284698,115.16129" id="XMLID_19_" fill="#2E73B5"></path>
                    <path d="M164.882562,105.096774 C149.02847,125.129032 137.594306,136.645161 109.05694,143.322581 C109.153025,143.419355 109.345196,143.419355 109.441281,143.516129 C126.352313,149.516129 147.395018,156.967742 174.875445,135.580645 C195.149466,119.903226 193.900356,109.645161 223.975089,97.5483871 C191.690391,78.9677419 176.316726,90.6774194 164.882562,105.096774" id="XMLID_18_" fill="#EAA640"></path>
                    <path d="M182.658363,31.9354839 C204.469751,48.483871 219.55516,60.9677419 233.391459,56.8064516 C218.017794,45.483871 201.106762,29.7096774 173.818505,12.3870968 C168.245552,8.90322581 162.960854,6.29032258 157.868327,4.35483871 C157.772242,4.35483871 157.772242,4.35483871 157.676157,4.25806452 C157.099644,4.06451613 156.523132,3.87096774 155.946619,3.67741935 C149.797153,1.5483871 142.302491,-0.0967741935 133.846975,0.0967741935 C133.270463,0.0967741935 132.790036,0.0967741935 132.309609,0.193548387 C131.829181,0.193548387 131.252669,0.193548387 130.772242,0.290322581 C122.316726,0.870967742 115.014235,3.19354839 109.153025,6 C108.576512,6.29032258 108.096085,6.48387097 107.519573,6.77419355 C107.423488,6.77419355 107.423488,6.87096774 107.327402,6.87096774 C103.868327,8.51612903 100.409253,10.5483871 96.8540925,12.9677419 C96.8540925,12.8709677 129.811388,-8.12903226 182.658363,31.9354839" id="XMLID_17_" fill="#FE9751"></path>
                    <path d="M101.370107,46.6451613 C101.370107,46.6451613 72.6405694,18.5806452 40.0676157,55.9354839 C73.6975089,57.3870968 82.3451957,73.2580645 115.398577,91.5483871 C148.451957,109.83871 173.626335,70.8387097 173.626335,70.8387097 C148.451957,83.516129 122.797153,61.4516129 101.370107,46.6451613" id="XMLID_16_" fill="#72AA29"></path>
                    <path d="M133.270463,81.9677419 C117.800712,77.2258065 102.13879,83.6129032 102.13879,83.6129032 C106.078292,86.1290323 110.498221,88.8387097 115.398577,91.5483871 C148.451957,109.83871 173.626335,70.8387097 173.626335,70.8387097 C173.626335,70.8387097 156.042705,88.9354839 133.270463,81.9677419" id="XMLID_15_" fill="#98C257"></path>
                    <path d="M164.882562,105.096774 C158.252669,113.419355 152.391459,120.290323 145.761566,126 L145.761566,126.096774 C145.761566,126.096774 161.327402,128.419355 173.530249,117 C185.733096,105.580645 192.651246,91.1612903 223.879004,97.6451613 C191.690391,78.9677419 176.316726,90.6774194 164.882562,105.096774" id="XMLID_14_" fill="#FED251"></path>
                    <path d="M129.907473,115.064516 L129.907473,115.064516 C90.8007117,127.83871 78.886121,106.16129 65.2419929,96 C57.4590747,90.1935484 46.5053381,89.8064516 38.6263345,90.483871 C47.0818505,96.7741935 56.2099644,104.806452 67.9323843,115.16129 C103.099644,146.032258 129.907473,115.064516 129.907473,115.064516" id="XMLID_13_" fill="#4FA8DB"></path>
                </g>
                <g id="XMLID_2_" transform="translate(0.000000, 174.000000)" fill="#FFFFFF">
                    <polygon id="XMLID_11_" points="21.696 19.8275 0 19.8275 0 2.21375 63.552 2.21375 63.552 19.8275 41.76 19.8275 41.76 74.78625 21.696 74.78625"></polygon>
                    <path d="M107.232,76.32625 C102.048,76.32625 97.152,75.36375 92.64,73.535 C88.128,71.70625 84.096,69.01125 80.832,65.73875 C77.472,62.37 74.784,58.42375 72.864,53.80375 C70.944,49.18375 69.888,44.17875 69.888,38.78875 L69.888,38.5 C69.888,33.20625 70.848,28.2975 72.768,23.6775 C74.688,19.0575 77.376,15.11125 80.736,11.64625 C84.096,8.18125 88.128,5.5825 92.832,3.56125 C97.44,1.63625 102.528,0.67375 108.096,0.67375 C111.84,0.67375 115.2,1.05875 118.272,1.7325 C121.344,2.5025 124.128,3.465 126.624,4.8125 C129.12,6.16 131.424,7.79625 133.44,9.625 C135.456,11.45375 137.28,13.57125 138.912,15.785 L123.84,27.5275 C121.728,24.92875 119.52,22.81125 117.024,21.27125 C114.528,19.73125 111.552,18.96125 108,18.96125 C105.408,18.96125 103.104,19.4425 100.992,20.50125 C98.88,21.46375 97.056,22.9075 95.52,24.64 C93.984,26.3725 92.832,28.39375 91.968,30.8 C91.104,33.11 90.72,35.6125 90.72,38.3075 L90.72,38.5 C90.72,41.195 91.104,43.6975 91.968,46.10375 C92.832,48.51 93.984,50.53125 95.52,52.26375 C97.056,53.99625 98.88,55.34375 100.992,56.4025 C103.104,57.365 105.408,57.9425 108,57.9425 C109.824,57.9425 111.552,57.75 113.088,57.365 C114.624,56.98 116.064,56.30625 117.312,55.53625 C118.56,54.76625 119.808,53.80375 120.96,52.745 C122.112,51.68625 123.264,50.435 124.32,49.18375 L139.392,59.96375 C137.664,62.27375 135.744,64.4875 133.728,66.50875 C131.712,68.53 129.408,70.2625 126.816,71.70625 C124.224,73.15 121.344,74.305 118.08,75.17125 C114.816,75.845 111.168,76.32625 107.232,76.32625" id="XMLID_10_"></path>
                    <path d="M184.224,76.32625 C178.656,76.32625 173.472,75.36375 168.672,73.3425 C163.872,71.4175 159.84,68.7225 156.384,65.2575 C152.928,61.88875 150.24,57.84625 148.224,53.3225 C146.304,48.79875 145.248,43.89 145.248,38.6925 L145.248,38.5 C145.248,33.3025 146.208,28.39375 148.224,23.87 C150.144,19.25 152.928,15.30375 156.48,11.83875 C160.032,8.37375 164.16,5.67875 168.864,3.75375 C173.664,1.82875 178.752,0.77 184.416,0.77 C189.984,0.77 195.168,1.7325 199.968,3.75375 C204.768,5.67875 208.8,8.37375 212.256,11.83875 C215.712,15.2075 218.4,19.25 220.416,23.77375 C222.336,28.2975 223.392,33.20625 223.392,38.40375 L223.392,38.59625 C223.392,43.79375 222.432,48.7025 220.416,53.3225 C218.496,57.9425 215.712,61.88875 212.16,65.35375 C208.608,68.81875 204.48,71.51375 199.776,73.43875 C195.072,75.2675 189.888,76.32625 184.224,76.32625 M184.416,58.135 C187.2,58.135 189.696,57.65375 192,56.595 C194.304,55.53625 196.224,54.18875 197.856,52.36 C199.488,50.6275 200.736,48.51 201.6,46.2 C202.464,43.89 202.944,41.3875 202.944,38.6925 L202.944,38.5 C202.944,35.90125 202.464,33.39875 201.6,30.9925 C200.736,28.6825 199.392,26.565 197.76,24.73625 C196.128,22.9075 194.112,21.46375 191.808,20.405 C189.504,19.34625 187.008,18.76875 184.224,18.76875 C181.44,18.76875 178.944,19.25 176.736,20.30875 C174.528,21.3675 172.512,22.715 170.88,24.54375 C169.248,26.27625 168,28.39375 167.136,30.70375 C166.272,33.01375 165.792,35.51625 165.792,38.21125 L165.792,38.40375 C165.792,41.0025 166.272,43.505 167.136,45.91125 C168,48.22125 169.344,50.33875 170.88,52.1675 C172.512,53.99625 174.432,55.44 176.736,56.49875 C179.136,57.5575 181.632,58.135 184.416,58.135" id="XMLID_7_"></path>
                    <polygon id="XMLID_6_" points="244.32 20.50125 232.032 23.2925 228.192 7.7 249.408 1.7325 264 1.7325 264 74.78625 244.32 74.78625"></polygon>
                    <path d="M301.92,76.32625 C296.544,76.32625 291.84,75.55625 287.712,74.01625 C283.68,72.47625 279.936,70.35875 276.672,67.66375 L286.08,53.7075 C288.576,55.72875 291.072,57.1725 293.568,58.135 C296.064,59.0975 298.752,59.57875 301.632,59.57875 C305.76,59.57875 308.928,58.23125 311.232,55.53625 C313.44,52.84125 314.88,49.18375 315.36,44.4675 C313.536,46.29625 311.232,47.74 308.736,48.79875 C306.144,49.8575 303.264,50.435 300,50.435 C296.448,50.435 293.184,49.8575 290.208,48.79875 C287.232,47.74 284.64,46.2 282.528,44.275 C280.32,42.35 278.688,39.94375 277.44,37.05625 C276.192,34.265 275.616,30.9925 275.616,27.5275 L275.616,27.335 C275.616,23.2925 276.384,19.73125 277.824,16.45875 C279.264,13.18625 281.28,10.395 283.872,8.085 C286.464,5.775 289.536,3.94625 292.992,2.695 C296.544,1.44375 300.384,0.86625 304.512,0.86625 C309.792,0.86625 314.112,1.63625 317.472,3.08 C320.928,4.52375 324,6.64125 326.688,9.4325 C329.28,12.03125 331.392,15.49625 333.024,19.8275 C334.656,24.15875 335.424,29.645 335.424,36.28625 L335.424,36.47875 C335.424,42.44625 334.656,47.83625 333.216,52.745 C331.776,57.65375 329.664,61.88875 326.784,65.35375 C324,68.81875 320.448,71.61 316.32,73.535 C312.192,75.2675 307.392,76.32625 301.92,76.32625 M305.376,35.90125 C308.544,35.90125 311.04,34.93875 312.864,33.11 C314.688,31.28125 315.552,29.0675 315.552,26.3725 L315.552,26.18 C315.552,23.2925 314.592,20.9825 312.768,19.0575 C310.944,17.22875 308.352,16.26625 305.184,16.26625 C302.016,16.26625 299.52,17.22875 297.696,19.0575 C295.872,20.88625 295.008,23.2925 295.008,26.08375 L295.008,26.27625 C295.008,29.0675 295.968,31.3775 297.792,33.11 C299.616,35.035 302.208,35.90125 305.376,35.90125" id="XMLID_3_"></path>
                </g>
            </g>
        </g>
    </g>
</svg>